PathFileType	4	(X/Y/Z)	C:/Users/beibeiliu/ov580/test_trc\sequence.36_training_dense_right.trc
DataRate	CameraRate	NumFrames	NumMarkers	Units	OrigDataRate	OrigDataStartFrame	OrigNumFrames
120	120	20	19	mm	120	192	255
Frame#	Time	ThumbCMC			ThumbMCP			ThumbIP			ThumbTip			IndexMCP			IndexPIP			IndexTip			MiddleMCP			MiddlePIP			MiddleTip			RingMCP			RingPIP			RingTip			PinkyMCP			PinkyPIP			PinkyTip			BackHand1			BackHand2			BackHand3	
		X0	Y0	Z0	X1	Y1	Z1	X2	Y2	Z2	X3	Y3	Z3	X4	Y4	Z4	X5	Y5	Z5	X6	Y6	Z6	X7	Y7	Z7	X8	Y8	Z8	X9	Y9	Z9	X10	Y10	Z10	X11	Y11	Z11	X12	Y12	Z12	X13	Y13	Z13	X14	Y14	Z14	X15	Y15	Z15	X16	Y16	Z16	X17	Y17	Z17	X18	Y18	Z18	
191	1.59167	230.057	31.1833	-36.9097	225.712	13.4089	-57.3458	229.941	0.20199	-83.7759	235.989	-12.9522	-95.9453	273.3	35.6166	-87.0684	275.74	23.8127	-108.288	271.007	4.04775	-121.25	294.202	29.0955	-80.3644	301.123	15.7588	-101.345	293.631	-9.74774	-117.022	301.925	20.207	-61.6225	307.564	9.33157	-86.01	301.514	-9.71682	-102.282	306.949	7.21692	-43.2812	316.321	-3.50211	-61.9221	312.536	-14.6239	-83.0431	280.454	34.2028	-24.5376	266.315	36.5668	-2.41548	259.286	45.2777	-28.5201	
192	1.6	235.049	30.2947	-41.4307	229.82	9.73044	-64.4226	239.212	-2.04478	-83.6477	241.323	-16.2875	-98.1317	280.194	39.6388	-87.0295	293.099	30.7591	-104.738	297.241	12.0743	-126.424	305.815	34.513	-75.632	318.178	25.639	-98.5051	325.185	7.35332	-118.623	313.371	26.3068	-61.8407	327.221	18.062	-76.8924	330.564	4.29569	-100.623	315.505	13.8964	-42.1453	331.821	5.3157	-54.3897	341.244	-5.16629	-67.382	286.437	34.122	-24.5984	272.052	39.3971	-7.27037	260.252	48.1511	-28.553	
193	1.60833	240.337	27.1027	-39.8278	238.566	5.37562	-67.099	239.116	-6.20211	-80.9585	243.045	-19.8955	-99.2967	286.564	38.5632	-84.392	299.27	34.4628	-105.552	309.319	23.9954	-128.086	310.98	35.8357	-76.4193	325.41	32.9812	-92.7669	341.299	22.5424	-112.786	317.731	26.948	-55.0472	334.415	23.7253	-76.4497	348.515	16.5251	-94.0733	321.989	13.6923	-33.1313	342.414	9.72272	-46.8516	357.046	3.64709	-57.8865	295.446	35.7747	-25.6288	277.298	39.5424	-2.78335	265.001	46.3924	-30.1716	
194	1.61667	241.616	24.5349	-43.6782	239.487	2.76024	-65.9927	241.818	-9.74719	-84.4853	244.11	-22.0397	-97.3472	294.764	36.4085	-86.5883	304.943	34.2931	-106.44	318.21	29.2343	-121.7	317.461	34.8282	-74.7376	334.282	32.5255	-89.7027	350.402	30.3221	-107.382	322.864	26.0353	-56.2917	339.858	23.9158	-69.9349	355.01	21.2331	-83.8173	326.837	16.3084	-37.5658	342.209	11.7788	-40.1827	357.808	12.8091	-51.6678	295.616	33.6641	-28.1653	279.436	40.157	-6.53602	268.906	45.464	-35.0703	
195	1.625	247.173	21.231	-44.3835	245.097	-0.8584	-65.2921	244.53	-12.8197	-80.5954	247.993	-25.0988	-96.825	295.755	32.7705	-87.2236	305.997	32.7331	-106.369	318.696	31.1772	-126.557	316.029	32.7344	-76.2605	334.337	31.4802	-90.7197	353.271	30.4388	-101.618	326.607	22.992	-55.3418	341.271	22.567	-68.1052	357.417	22.218	-82.9369	329.214	14.4551	-34.243	344.464	10.9552	-37.3004	362.585	15.7193	-49.2373	292.665	31.3246	-27.4872	280.344	36.0304	-7.16266	270.374	40.7092	-33.3177	
196	1.63333	246.279	15.9584	-42.2792	246.059	-5.64752	-63.8067	246.344	-17.7637	-79.454	243.877	-29.4965	-96.4021	295.719	28.8283	-87.6519	306.902	26.9255	-104.637	318.512	27.5263	-123.145	318.691	26.9649	-75.1652	336.347	27.1147	-89.0924	356.628	27.5295	-104.576	324.308	20.2002	-56.3569	343.662	18.5969	-66.8111	359.119	17.9941	-79.688	326.977	10.3831	-35.4128	348.459	8.16292	-39.0935	361.212	13.0381	-40.6193	299.678	28.5346	-25.6102	280.069	31.7733	-3.6699	272.193	35.7625	-33.4901	
197	1.64167	245.378	11.1139	-39.4502	244.721	-10.812	-64.0232	245.034	-22.3812	-80.8488	245.601	-34.3811	-91.965	294.366	21.6792	-84.1094	309.173	20.7011	-104.681	320.733	19.4604	-117.669	313.774	21.1735	-72.0949	331.821	20.7498	-86.4455	356.988	20.4459	-102.794	323.193	13.9728	-56.0413	344.406	11.9349	-66.8854	355.631	12.7138	-80.077	327.083	4.31323	-29.0674	346.873	3.1183	-38.7031	360.103	6.70208	-44.9058	297.334	21.6972	-26.3401	276.598	28.0353	-4.80513	269.444	33.3159	-34.7085	
198	1.65	246.241	6.36848	-37.8483	244.028	-13.9939	-56.4288	244.528	-26.9509	-77.6409	242.017	-39.9867	-95.0491	290.98	16.3171	-82.2021	308.565	13.6225	-101.918	319.453	14.1312	-122.018	317.96	13.4578	-69.1816	332.237	13.7974	-89.3869	352.699	14.3698	-102.354	323.862	6.29402	-52.1362	343.008	6.36659	-67.7107	353.518	5.14694	-79.7072	327.902	-1.13339	-30.7108	346.395	-3.69291	-37.5439	358.53	0.476213	-42.0644	295.401	16.2706	-23.1437	280.084	24.4233	-7.5788	271.132	26.0442	-30.3445	
199	1.65833	247.635	2.08447	-40.4621	242.027	-19.1766	-62.3594	245.66	-31.1782	-79.3314	242.765	-42.6312	-92.9065	295.421	9.4438	-83.5837	302.887	8.67383	-101.964	317.581	6.44112	-117.467	316.956	8.151	-71.3547	329.757	6.57289	-86.9182	354.074	5.29735	-100.71	323.591	0.619442	-52.6048	339.382	0.145832	-69.1768	357.249	-1.20083	-79.8421	325.296	-7.86006	-29.0774	344.843	-9.15789	-39.0218	358.381	-6.55017	-45.7017	298.954	11.0744	-23.9429	279.002	18.7247	-3.81114	268.11	24.1394	-33.4929	
200	1.66667	244.147	-0.362373	-37.6623	239.304	-20.3671	-55.9427	241.296	-33.4236	-78.3882	237.659	-44.0058	-92.3626	289.552	6.50205	-83.1146	303.456	3.68992	-102.632	315.255	1.49171	-118.647	315.995	2.12161	-71.5322	330.163	0.662974	-85.8295	350.184	0.114498	-100.524	323.022	-4.57584	-53.1068	340.224	-7.55406	-67.374	357.139	-7.52227	-80.3271	324.948	-13.3093	-29.4115	341.795	-15.9365	-42.4926	357.12	-13.63	-47.7364	293.453	9.44645	-25.9243	279.375	14.5469	-0.430108	270.358	19.4935	-31.4098	
201	1.675	237.631	-0.572854	-35.0278	234.81	-21.6165	-58.8111	235.091	-32.0217	-74.4243	233.632	-44.0815	-91.5365	284.516	4.24702	-82.0975	299.223	0.622683	-102.041	308.262	-1.52898	-119.631	311.042	-2.09684	-70.6317	322.628	-1.66495	-90.2692	344.948	-2.42544	-105.459	317.635	-9.78426	-52.2193	334.012	-12.2202	-66.2797	346.648	-11.037	-83.8852	319.511	-18.7114	-32.1595	335.034	-21.6837	-41.3037	352.068	-21.9643	-51.6533	294.421	2.68108	-22.264	277.403	11.8497	-3.84164	263.495	15.7642	-29.5443	
202	1.68333	235.605	-1.31685	-34.8017	229.642	-20.2954	-54.8039	229.524	-31.1074	-76.5989	231.388	-41.5003	-91.9416	278.995	4.71823	-85.5234	290.286	-1.04489	-102.871	301.027	-3.36541	-120.526	299.941	-2.36035	-72.4879	317.735	-4.7971	-90.5773	331.223	-4.75308	-107.039	310.062	-10.7788	-58.7372	326.577	-15.2713	-73.5292	337.271	-16.3163	-86.198	315.85	-22.9124	-35.1688	327.498	-25.6615	-48.3851	344.325	-26.8443	-55.0724	288.274	2.80583	-20.5231	276.614	6.14772	-1.25868	262.409	14.9127	-27.4789	
203	1.69167	227.461	2.22505	-34.9407	219.926	-15.4552	-54.6424	223.472	-26.9444	-75.1232	221.196	-36.4807	-92.6828	271.307	5.09583	-85.2203	278.228	1.55524	-103.596	288.138	-1.65608	-125.59	295.816	-2.8045	-76.0302	306.432	-5.81091	-92.9281	323.951	-7.6545	-109.677	303.513	-13.6695	-59.131	316.207	-16.8276	-79.4737	328.258	-20.3353	-93.8479	308.792	-24.3833	-42.2497	319.064	-29.5344	-55.339	331.957	-30.2263	-62.1111	282.977	1.01812	-22.3516	272.178	5.22305	3.70737	258.847	17.4854	-27.3396	
204	1.7	220.597	5.09395	-27.1692	214.912	-11.0798	-51.6271	212.211	-18.9568	-73.5095	210.357	-28.1238	-88.8044	263.827	7.20453	-83.4283	266.708	3.27884	-104.505	276.839	-1.91321	-124.55	285.13	-2.83727	-75.3617	295.832	-7.0495	-93.8952	306.959	-7.06461	-115.229	292.584	-12.6964	-64.6663	304.654	-19.7427	-82.2663	309.997	-20.7704	-100.981	295.996	-25.4234	-43.4502	308.141	-33.3174	-56.5442	317.951	-32.7579	-68.8137	274.37	-1.33501	-21.7048	266.259	4.49172	0.819306	251.723	17.6259	-23.4523	
205	1.70833	212.491	9.00756	-24.5799	199.899	-2.50613	-47.5039	200.495	-11.103	-69.2378	201.48	-19.6168	-87.4438	250.033	10.2946	-82.1929	252.659	6.18436	-104.2	256.614	3.09341	-119.574	269.895	-0.949299	-73.3049	278.504	-5.74936	-95.408	291.044	-9.73079	-120.579	281.138	-12.7362	-65.2156	284.799	-16.6505	-83.7864	288.785	-21.0961	-103.828	280.616	-23.973	-45.1424	291.34	-30.6056	-61.2023	302.277	-32.694	-76.942	268.859	-0.114032	-21.3841	256.288	7.30147	2.67202	245.759	20.006	-20.9087	
206	1.71667	201.616	12.657	-20.29	189.468	0.202011	-45.2681	186.762	-6.62947	-68.2772	185.147	-13.3925	-84.4482	234.794	14.4915	-78.8583	234.428	10.7514	-99.5502	238.745	6.42455	-120.82	253.645	3.60284	-72.8896	260.907	-2.39089	-95.8291	266.63	-6.39485	-121.738	263.287	-9.57299	-62.9865	268.875	-16.1079	-88.5744	272.072	-21.4761	-109.055	267.614	-22.3442	-47.5741	274.547	-27.0483	-67.5463	283.028	-30.3633	-80.1286	253.446	3.87323	-22.4288	249.324	5.13615	1.49846	234.278	19.629	-18.7763	
207	1.725	188.171	13.0379	-11.7248	178.251	2.48777	-38.6761	171.01	-1.04043	-61.8871	168.11	-7.59178	-77.7295	215.301	19.6613	-75.716	217.863	14.5108	-96.6415	216.971	10.3902	-116.203	236.327	6.96647	-77.0264	240.749	2.52162	-95.5694	243.438	-1.78615	-123.473	245.886	-6.27923	-62.5979	249.916	-12.5082	-90.1271	250.54	-16.4263	-106.27	251.95	-18.9554	-47.7421	261.34	-26.4425	-67.4203	265.44	-26.1012	-83.1203	241.355	6.35719	-20.3314	239.029	7.21023	7.61273	220.787	23.4282	-12.4091	
208	1.73333	174.947	14.4794	-8.099	161.495	5.36568	-31.2128	158.685	2.10876	-56.1367	152.978	-1.37117	-75.9854	197.479	22.6211	-70.1127	196.743	18.7824	-90.3999	197.279	12.6189	-117.764	217.996	10.9851	-74.4037	223.548	5.27883	-94.4732	225.182	0.00986337	-119.298	228.445	-1.79273	-62.9128	229.566	-7.31926	-83.4259	231.955	-13.6548	-105.326	239.329	-16.3894	-51.6248	245.279	-22.6226	-63.7428	248.981	-22.709	-82.2534	225.693	7.61919	-18.9466	225.749	10.7856	5.24982	208.163	23.9803	-13.6675	
209	1.74167	160.357	14.8853	-1.844	149.555	6.30475	-27.6268	145.176	3.70342	-48.157	138.718	0.742432	-69.7331	180.937	22.107	-64.3038	180.916	16.2145	-88.6615	179.92	11.3246	-108.831	202.967	10.4939	-68.1798	206.1	6.1366	-92.5593	203.927	2.76982	-117.799	214.146	0.0951078	-61.2923	217.249	-7.54114	-87.1414	216.962	-12.4856	-107.679	225.333	-13.3285	-48.749	230.436	-18.4144	-67.7294	235.644	-20.2037	-82.1481	216.248	7.11611	-18.1556	214.29	9.11176	8.48463	195.391	22.9004	-9.09421	
210	1.75	153.976	11.6363	4.58352	140.612	5.73253	-22.7546	134.206	3.21152	-44.4198	126.015	0.226437	-58.3392	166.189	20.0142	-63.5695	166.244	14.549	-82.8423	160.806	9.30719	-108.869	189.173	9.52429	-69.5162	186.1	8.28162	-90.5887	188.45	2.35614	-112.796	201.72	-0.0852568	-56.2439	200.502	-4.6014	-82.1573	199.95	-8.1749	-101.819	213.736	-13.2697	-41.6794	217.113	-17.4448	-62.5312	221.688	-19.8397	-80.1181	200.411	9.29966	-13.4857	202.208	12.7224	13.9226	181.275	24.765	-3.4044	
